<?xml version="1.0" encoding="UTF-8"?>
<svg width="52px" height="60px" viewBox="0 0 52 60" version="1.1" xmlns="http://www.w3.org/2000/svg" xmlns:xlink="http://www.w3.org/1999/xlink">
    <!-- Generator: Sketch 46.2 (44496) - http://www.bohemiancoding.com/sketch -->
    <title>Logotype</title>
    <desc>Created with Sketch.</desc>
    <defs></defs>
    <g id="Symbols" stroke="none" stroke-width="1" fill="none" fill-rule="evenodd">
        <g id="Header" transform="translate(0.000000, -15.000000)" fill="#11175E">
            <path d="M14.3267594,66.351819 C14.3493986,66.649994 14.4675643,66.9089646 14.6685563,67.0762739 C14.8667875,67.2402702 15.137906,67.3109487 15.4537507,67.2794747 C16.76296,67.1640699 17.5277238,65.599203 17.9595255,64.1326235 C17.6861984,64.2093759 17.4211539,64.2822632 17.1511398,64.3457634 C14.6878825,64.9476353 14.3378029,65.6665685 14.3267594,66.351819 M40.5661645,55.0482234 C40.5462862,54.7726875 40.3640681,54.5214474 40.0896366,54.3916861 L40.0371799,54.3723599 C39.9526969,54.3513772 39.8466791,54.3254249 39.7307222,54.3326032 C39.4408297,54.3535859 39.1702635,54.5380127 39.0311151,54.827353 C38.052107,57.4137455 37.1012599,59.1575174 35.642963,59.2585656 C35.4971885,59.269057 35.3850968,59.2298525 35.3022704,59.1381913 C35.2012221,59.0255473 35.1377219,58.8378075 35.1206044,58.5931935 C35.1073522,58.4098711 35.1327523,57.7748686 35.6136976,55.8140915 C35.6286064,55.7726783 35.642963,55.7351304 35.6584239,55.693165 C35.6722283,55.6401561 35.6860327,55.5722384 35.693211,55.4982468 C36.0316949,54.2359724 36.3762527,53.0057242 36.7097671,51.816337 C36.9068939,51.1139691 37.1023642,50.4182273 37.2950737,49.7191725 L38.2674557,46.0935846 C38.3259863,45.8931447 38.2994819,45.6827657 38.1929119,45.5010998 C38.0891028,45.3238512 37.9206891,45.1946421 37.6965056,45.1322462 C37.2718823,45.0483154 36.8654807,45.2840946 36.7500759,45.68387 L35.7760374,49.3138753 C35.5849845,50.0068562 35.3906185,50.7037023 35.1979091,51.3972354 C34.8389947,52.6876708 34.4839455,53.9665105 34.153192,55.2000718 C34.1327615,55.2845547 34.1134354,55.3640681 34.0941092,55.4441336 C32.998592,58.3706666 32.2443195,59.4965535 31.342616,59.5595016 C31.1532196,59.573306 30.9179927,59.5887669 30.8682968,58.8902642 C30.8268836,58.3143446 31.1537718,56.8549434 31.8682876,54.4286819 C31.9859011,54.0333238 32.1178712,53.5805395 32.2603326,53.0879985 C32.4629812,52.3883914 32.6888212,51.6070623 32.9367482,50.7931549 C33.0085311,50.5601366 32.9577309,50.3044791 32.8003608,50.1095609 C32.6352601,49.9047036 32.3718722,49.7931641 32.1002015,49.8130424 C31.7832525,49.8351294 31.5099254,50.0504781 31.4193685,50.3503097 C30.4530604,53.6622615 29.8241319,55.7776479 29.1085118,57.4833197 C28.5071921,58.964808 27.6894194,59.8146069 26.8059377,59.8764506 C26.3702708,59.9073725 25.7816512,59.8267548 25.7065552,58.7820377 C25.661829,58.1547657 25.7269858,57.9416258 26.5331628,55.3276244 C26.8418292,54.3303945 27.255409,52.9880546 27.8086894,51.1515171 C27.8843375,50.9057988 27.835746,50.642963 27.6783759,50.4480448 C27.5199013,50.2520223 27.2692134,50.1509741 26.9964385,50.1691959 C26.6783851,50.191283 26.4050579,50.4066316 26.3167098,50.7020458 C26.003626,51.7097671 25.7330597,52.5739226 25.4983849,53.3204646 C25.1742576,54.3557946 24.9197044,55.1680456 24.7225776,55.8251351 C24.7120862,55.8455656 24.6982818,55.8615787 24.6888948,55.8836657 C23.6822779,58.7836942 22.2659464,60.6356927 20.2609952,61.6577705 C22.045076,55.282346 22.045076,55.2817938 22.3344162,54.3436468 C22.4851603,53.8538666 22.7137611,53.1133986 23.3095591,51.1029256 C23.3885203,50.8395376 23.3377201,50.5700757 23.1693064,50.3635619 C23.0075188,50.1653307 22.7612483,50.0554477 22.5166343,50.0742217 C22.1952679,50.0968609 21.9059276,50.338714 21.7932837,50.683824 C21.3736299,52.1084382 21.0964375,53.0189764 20.8590018,53.798649 C20.2930214,55.6561692 19.9501201,56.7837126 18.4299795,62.3833298 C17.939095,62.5407 17.4034842,62.6842657 16.7541252,62.8333533 C13.9860668,63.5368255 12.644279,64.7571346 12.7663099,66.4600455 C12.819871,67.2148701 13.1169417,67.8399334 13.6238393,68.2673176 C14.0666845,68.6394843 14.6354258,68.8321937 15.2820239,68.8321937 C15.3792069,68.8321937 15.476942,68.8277763 15.5768859,68.8194937 C17.3957538,68.6670931 18.7960722,66.9028906 19.739741,63.5765822 C21.7248139,62.8206532 23.2234196,61.6964228 24.3929285,60.0260903 C24.7661995,60.9404938 25.5298589,61.4269609 26.634211,61.4269609 C26.7258722,61.4269609 26.8197421,61.4236479 26.9163729,61.4170217 C27.8572809,61.3513128 28.8108889,60.7925107 29.5104959,59.9211769 C29.9411933,60.9609243 30.7771878,61.148112 31.4536034,61.1000727 C32.3453677,61.0376768 33.0830749,60.5975925 33.7821297,59.6406714 C34.1057049,60.3750656 34.7462291,60.8057629 35.5783584,60.8057629 C35.6357847,60.8057629 35.6943153,60.8041063 35.7533982,60.7996889 C38.0405113,60.6401101 39.2718639,58.6086544 40.5159165,55.3817377 L40.5258556,55.3508158 C40.5473905,55.2674373 40.5744471,55.1636282 40.5661645,55.0482234 M24.0566533,47.4911422 C23.8374394,47.3034023 23.5536209,47.2106368 23.2631763,47.2321716 C22.970523,47.2526021 22.7016133,47.3823635 22.506143,47.5955034 C22.3062552,47.813613 22.2074157,48.0935662 22.2283984,48.3834586 C22.2692594,48.9488869 22.7579352,49.3828973 23.3355114,49.3828973 C23.362568,49.3828973 23.3896246,49.3812407 23.4172334,49.3795842 C24.0262836,49.3370667 24.4713375,48.8318256 24.4277156,48.2299537 C24.407285,47.9406135 24.275315,47.6783299 24.0566533,47.4911422 M14.3880509,40.1157269 C14.8397309,40.103579 15.1622017,39.7976735 15.1909149,39.3228021 C15.1793192,38.8661525 14.8170917,38.5177295 14.366516,38.5298773 C13.5730391,38.55086 12.8933104,37.8970836 12.9546019,36.979367 C13.1384765,34.215726 19.519975,33.5564278 19.7629324,33.510045 C18.933564,36.0323851 17.2140879,41.7888203 17.2792446,44.1797425 C17.3510275,46.8368136 18.7712243,47.3575156 19.9506723,47.3265937 C23.0654973,47.2443195 24.8700086,42.5364666 26.6281371,38.0373363 C28.1289515,34.1787302 29.6789096,30.1042232 31.5761865,30.0539752 L31.5899909,30.0539752 C32.0400144,30.0418273 32.3856766,29.7696045 32.3735287,29.3251028 C32.361933,28.8877794 31.9836924,28.585187 31.5286993,28.5967827 C28.5629619,28.6746395 26.8970468,32.9816125 25.1251139,37.5359605 C23.6513561,41.3360359 21.9815757,45.6540525 19.9064982,45.7087179 C19.6397972,45.7158962 18.9291466,45.740192 18.8844204,44.0891856 C18.8314115,42.1212302 20.7485666,35.5056092 21.6088569,33.1075087 C22.6220999,32.8319728 24.9611176,31.9689217 24.8291475,30.3725808 C24.7568125,29.49186 24.1521797,28.7480789 23.0505885,28.8789446 C21.8313838,29.0236147 20.8904759,30.442155 20.3852348,31.7624079 C19.8711589,31.8711865 11.0678164,32.7033158 11.3472175,36.9782627 C11.4664875,38.808174 12.703914,40.159901 14.3880509,40.1157269 M25.9511692,19.4483301 C26.7617637,19.4483301 27.4188531,18.7995233 27.4188531,17.9994202 C27.4188531,17.1993171 26.7617637,16.5516147 25.9511692,16.5516147 C25.1405748,16.5516147 24.4834853,17.1993171 24.4834853,17.9994202 C24.4834853,18.7995233 25.1405748,19.4483301 25.9511692,19.4483301 M30.0648807,34.8126283 C30.6043567,34.8126283 31.0267713,34.3962875 31.0267713,33.8639898 C31.0267713,33.3316921 30.6043567,32.9147992 30.0648807,32.9147992 C29.5237482,32.9147992 29.0847682,33.340527 29.0847682,33.8639898 C29.0847682,34.3874527 29.5237482,34.8126283 30.0648807,34.8126283 M32.7810346,35.0103073 L31.3310203,35.0103073 C30.8042444,35.0103073 30.5485869,35.5895399 30.5485869,35.9484544 C30.5485869,36.3780473 30.821914,36.7651227 31.3199768,36.7651227 L32.2984327,36.8065359 L31.2680723,39.7811082 C31.0974499,40.2129099 29.4381609,44.9130323 28.3260784,44.9130323 C28.1692604,44.9130323 27.6844498,44.8898409 27.6546323,44.3326953 C27.6093539,43.5171313 30.0935938,36.7275748 30.0946982,36.7292313 C30.1863594,36.4724694 30.1576463,36.2228859 30.0146327,36.0235503 C29.8660973,35.8159321 29.6115442,35.6927969 29.3326953,35.6927969 C28.9958679,35.6927969 28.6971406,35.9075933 28.5955403,36.2123945 C28.5955403,36.2123945 26.0754088,42.6573932 26.0085955,44.3619606 C25.9804346,45.0069022 26.1775614,45.5806131 26.5629803,45.9781798 C26.9075381,46.333229 27.3768878,46.5209689 27.920229,46.5209689 C28.7435234,46.5209689 29.4922741,46.1388631 30.1918812,45.3569818 C30.4878475,46.0825411 31.1289239,46.5209689 31.9610532,46.5209689 C34.109018,46.5209689 35.3867533,44.7219794 36.766089,41.7832985 C36.7936978,41.7026808 36.8273806,41.6021848 36.8273806,41.4818104 C36.8273806,41.1979919 36.6606234,40.9274257 36.3917137,40.7761294 C36.3917137,40.7761294 36.1426823,40.6872291 36.0239644,40.6872291 C35.7279981,40.6872291 35.4386578,40.8550906 35.273005,41.1433265 C34.2233184,43.4149787 33.5568419,44.9202106 32.2592282,44.9202106 C32.0284187,44.9202106 31.6137345,44.7379925 31.6137345,44.3636171 C31.6137345,43.7838323 31.9047312,42.7755588 32.766678,40.3686235 C33.0433182,39.5988901 33.8688214,37.2780943 33.9671087,36.8805275 L35.3254618,36.8639622 C35.3254618,36.8639622 36.1078952,36.9407147 36.2409696,36.0699331 C36.295635,35.7148839 36.0720038,35.0103073 35.4370013,35.0103073 L34.5038238,35.0103073 C34.6716853,34.5553142 35.4513579,32.8336294 35.2834964,32.3703537 C35.2282788,32.2174009 34.98753,32.0224828 34.5143152,32.0219306 C34.3210536,32.016961 33.942813,31.9578782 33.7997994,32.3825015 C33.7429252,32.5630631 33.0267529,34.6132927 32.7810346,35.0103073 M51.9249777,49.3768233 C51.9249777,63.5285429 40.30112,75 25.9627649,75 C11.6233055,75 0,63.5285429 0,49.3768233 C0,36.2620904 9.98389487,25.4504836 22.8600878,23.9375213 L22.8600878,20.9077314 L25.2029707,20.9077314 C23.8821656,20.5808432 22.9026054,19.4052604 22.9026054,18.0010767 C22.9026054,16.3434443 24.2637193,15 25.9434388,15 C27.6226061,15 28.98372,16.3434443 28.98372,18.0010767 C28.98372,19.4052604 28.0041597,20.5808432 26.6833547,20.9077314 L29.0599203,20.9077314 L29.0599203,23.9369691 C41.9383219,25.4477227 51.9249777,36.2604338 51.9249777,49.3768233 M23.2802938,30.6194035 C23.127341,30.7718041 22.6259652,31.1704751 22.1135458,31.2858799 C22.1334241,31.0219398 22.5331996,30.344972 23.0240841,30.2472368 C23.3520766,30.2030627 23.4741075,30.3880417 23.2802938,30.6194035" id="Logotype"></path>
        </g>
    </g>
</svg>